<?xml version="1.0" encoding="UTF-8" standalone="no"?>
<svg width="217px" height="136px" viewBox="0 0 217 136" version="1.1" xmlns="http://www.w3.org/2000/svg" xmlns:xlink="http://www.w3.org/1999/xlink">
    <!-- Generator: Sketch 42 (36781) - http://www.bohemiancoding.com/sketch -->
    <title>Artboard</title>
    <desc>Created with Sketch.</desc>
    <defs></defs>
    <g id="Page-1" stroke="none" stroke-width="1" fill="none" fill-rule="evenodd">
        <g id="logo_earsketch_web" transform="translate(4.000000, -35.000000)" fill="#FFFFFF">
            <g id="Page-1">
                <g id="Group-3">
                    <g id="Group-5">
                        <g id="Group-2">
                            <path d="M146.5,99.1 C146.5,97.1 144.9,95.5 142.9,95.5 C140.9,95.5 139.3,97.1 139.3,99.1 L139.3,113.6 C139.3,115.6 140.9,117.2 142.9,117.2 C144.9,117.2 146.5,115.6 146.5,113.6 L146.5,99.1 Z M133.5,99.1 C133.5,97.1 131.9,95.5 129.9,95.5 C127.9,95.5 126.3,97.1 126.3,99.1 L126.3,146.2 C126.3,148.2 127.9,149.8 129.9,149.8 C131.9,149.8 133.5,148.2 133.5,146.2 L133.5,99.1 Z M120.6,99.1 C120.6,97.1 119,95.5 117,95.5 C115,95.5 113.4,97.1 113.4,99.1 L113.4,120.8 C113.4,122.8 115,124.4 117,124.4 C119,124.4 120.6,122.8 120.6,120.8 L120.6,99.1 Z M155.8,95.5 C157.8,95.5 159.4,97.1 159.4,99.1 C159.4,101.1 157.8,102.7 155.8,102.7 C153.8,102.7 152.2,101.1 152.2,99.1 C152.2,97.1 153.8,95.5 155.8,95.5 Z M104,95.5 C106,95.5 107.6,97.1 107.6,99.1 C107.6,101.1 106,102.7 104,102.7 C102,102.7 100.4,101.1 100.4,99.1 C100.4,97.1 102,95.5 104,95.5 Z M87.4,62.9 C87.4,60.9 89,59.3 91,59.3 C93,59.3 94.6,60.9 94.6,62.9 L94.6,99.1 C94.6,101.1 93,102.7 91,102.7 C89,102.7 87.4,101.1 87.4,99.1 L87.4,62.9 Z M74.5,70.1 C74.5,68.1 76.1,66.5 78.1,66.5 C80.1,66.5 81.7,68.1 81.7,70.1 L81.7,99.1 C81.7,101.1 80.1,102.7 78.1,102.7 C76.1,102.7 74.5,101.1 74.5,99.1 L74.5,70.1 Z M61.6,77.4 C61.6,75.4 63.2,73.8 65.2,73.8 C67.2,73.8 68.8,75.4 68.8,77.4 L68.8,99.1 C68.8,101.1 67.2,102.7 65.2,102.7 C63.2,102.7 61.6,101.1 61.6,99.1 L61.6,77.4 Z M52.2,102.7 C54.2,102.7 55.8,101.1 55.8,99.1 C55.8,97.1 54.2,95.5 52.2,95.5 C50.2,95.5 48.6,97.1 48.6,99.1 C48.6,101.1 50.2,102.7 52.2,102.7 Z" id="Combined-Shape" fill-rule="nonzero"></path>
                            <g id="Group-4" font-size="143.6268" font-family="Helvetica" font-weight="normal">
                                <text id="{">
                                    <tspan x="0.3882" y="140.8258">{</tspan>
                                </text>
                                <text id="{" transform="translate(184.647000, 87.325800) scale(-1, 1) translate(-184.647000, -87.325800) ">
                                    <tspan x="160.647" y="140.8258">{</tspan>
                                </text>
                            </g>
                        </g>
                    </g>
                </g>
            </g>
        </g>
        <g id="Artboard"></g>
    </g>
</svg>